<svg width="400" height="400" viewBox="0 0 400 400" fill="none" xmlns="http://www.w3.org/2000/svg">
  <!-- Background elements -->
  <circle cx="200" cy="200" r="180" fill="url(#paint0_radial)" fill-opacity="0.1"/>
  <circle cx="200" cy="200" r="150" stroke="url(#paint1_linear)" stroke-width="1" stroke-opacity="0.3"/>
  <circle cx="200" cy="200" r="120" stroke="url(#paint2_linear)" stroke-width="1" stroke-opacity="0.2"/>
  
  <!-- Envelope base -->
  <rect x="100" y="140" width="200" height="140" rx="8" fill="url(#paint3_linear)" stroke="#00E6CC" stroke-width="2"/>
  
  <!-- Envelope flap (open) -->
  <path d="M100 148C100 143.582 103.582 140 108 140H292C296.418 140 300 143.582 300 148V148L200 210L100 148V148Z" fill="url(#paint4_linear)" stroke="#00E6CC" stroke-width="2"/>
  
  <!-- Message content -->
  <rect x="130" y="170" width="140" height="80" rx="4" fill="#0F1219" fill-opacity="0.5"/>
  <line x1="140" y1="185" x2="260" y2="185" stroke="#00E6CC" stroke-width="2" stroke-opacity="0.5"/>
  <line x1="140" y1="200" x2="240" y2="200" stroke="#FFFFFF" stroke-width="2" stroke-opacity="0.3"/>
  <line x1="140" y1="215" x2="220" y2="215" stroke="#FFFFFF" stroke-width="2" stroke-opacity="0.3"/>
  <line x1="140" y1="230" x2="200" y2="230" stroke="#FFFFFF" stroke-width="2" stroke-opacity="0.3"/>
  
  <!-- Decorative elements -->
  <circle cx="320" cy="120" r="15" fill="url(#paint5_radial)" fill-opacity="0.6"/>
  <circle cx="80" cy="280" r="20" fill="url(#paint6_radial)" fill-opacity="0.6"/>
  
  <!-- Small particles -->
  <circle cx="120" cy="100" r="3" fill="#00E6CC" fill-opacity="0.8"/>
  <circle cx="280" cy="300" r="3" fill="#00E6CC" fill-opacity="0.8"/>
  <circle cx="330" cy="220" r="2" fill="#FFFFFF" fill-opacity="0.8"/>
  <circle cx="70" cy="180" r="2" fill="#FFFFFF" fill-opacity="0.8"/>
  
  <!-- Connection lines -->
  <line x1="120" y1="100" x2="180" y2="140" stroke="#00E6CC" stroke-width="1" stroke-opacity="0.3" stroke-dasharray="2 4"/>
  <line x1="280" y1="300" x2="220" y2="280" stroke="#00E6CC" stroke-width="1" stroke-opacity="0.3" stroke-dasharray="2 4"/>
  
  <!-- Gradients definitions -->
  <defs>
    <radialGradient id="paint0_radial" cx="0" cy="0" r="1" gradientUnits="userSpaceOnUse" gradientTransform="translate(200 200) rotate(90) scale(180)">
      <stop stop-color="#00E6CC"/>
      <stop offset="1" stop-color="#121218" stop-opacity="0"/>
    </radialGradient>
    
    <linearGradient id="paint1_linear" x1="100" y1="100" x2="300" y2="300" gradientUnits="userSpaceOnUse">
      <stop stop-color="#00E6CC"/>
      <stop offset="1" stop-color="#3A7BD5"/>
    </linearGradient>
    
    <linearGradient id="paint2_linear" x1="120" y1="120" x2="280" y2="280" gradientUnits="userSpaceOnUse">
      <stop stop-color="#00E6CC"/>
      <stop offset="1" stop-color="#3A7BD5"/>
    </linearGradient>
    
    <linearGradient id="paint3_linear" x1="100" y1="140" x2="300" y2="280" gradientUnits="userSpaceOnUse">
      <stop stop-color="#0F1219" stop-opacity="0.8"/>
      <stop offset="1" stop-color="#0F1219" stop-opacity="0.4"/>
    </linearGradient>
    
    <linearGradient id="paint4_linear" x1="100" y1="140" x2="200" y2="210" gradientUnits="userSpaceOnUse">
      <stop stop-color="#0F1219" stop-opacity="0.9"/>
      <stop offset="1" stop-color="#0F1219" stop-opacity="0.6"/>
    </linearGradient>
    
    <radialGradient id="paint5_radial" cx="0" cy="0" r="1" gradientUnits="userSpaceOnUse" gradientTransform="translate(320 120) rotate(90) scale(15)">
      <stop stop-color="#00E6CC"/>
      <stop offset="1" stop-color="#00E6CC" stop-opacity="0"/>
    </radialGradient>
    
    <radialGradient id="paint6_radial" cx="0" cy="0" r="1" gradientUnits="userSpaceOnUse" gradientTransform="translate(80 280) rotate(90) scale(20)">
      <stop stop-color="#3A7BD5"/>
      <stop offset="1" stop-color="#3A7BD5" stop-opacity="0"/>
    </radialGradient>
  </defs>
</svg>