<svg width="800" height="500" viewBox="0 0 800 500" fill="none" xmlns="http://www.w3.org/2000/svg">
  <!-- Dashboard Background -->
  <rect width="800" height="500" rx="12" fill="#121218"/>
  
  <!-- Top Navigation Bar -->
  <rect x="0" y="0" width="800" height="60" rx="12" fill="#1E1E24"/>
  
  <!-- Logo Area -->
  <circle cx="30" cy="30" r="15" fill="#00E6CC" opacity="0.8"/>
  <rect x="55" y="25" width="80" height="10" rx="2" fill="#FFFFFF"/>
  
  <!-- Navigation Items -->
  <rect x="200" y="25" width="60" height="10" rx="2" fill="#00E6CC"/>
  <rect x="280" y="25" width="60" height="10" rx="2" fill="#FFFFFF" opacity="0.7"/>
  <rect x="360" y="25" width="60" height="10" rx="2" fill="#FFFFFF" opacity="0.7"/>
  <rect x="440" y="25" width="60" height="10" rx="2" fill="#FFFFFF" opacity="0.7"/>
  
  <!-- User Profile -->
  <circle cx="750" cy="30" r="15" fill="#2D2D35"/>
  <circle cx="750" cy="30" r="8" fill="#FFFFFF" opacity="0.8"/>
  <rect x="700" y="25" width="30" height="10" rx="2" fill="#FFFFFF" opacity="0.7"/>
  
  <!-- Left Sidebar -->
  <rect x="0" y="60" width="200" height="440" fill="#1E1E24"/>
  
  <!-- Sidebar Menu Items -->
  <rect x="20" y="90" width="160" height="40" rx="6" fill="#00E6CC" opacity="0.2"/>
  <rect x="30" y="105" width="20" height="10" rx="2" fill="#00E6CC"/>
  <rect x="60" y="105" width="80" height="10" rx="2" fill="#FFFFFF"/>
  
  <rect x="30" y="155" width="20" height="10" rx="2" fill="#00E6CC" opacity="0.8"/>
  <rect x="60" y="155" width="80" height="10" rx="2" fill="#FFFFFF" opacity="0.7"/>
  
  <rect x="30" y="195" width="20" height="10" rx="2" fill="#00E6CC" opacity="0.8"/>
  <rect x="60" y="195" width="80" height="10" rx="2" fill="#FFFFFF" opacity="0.7"/>
  
  <rect x="30" y="235" width="20" height="10" rx="2" fill="#00E6CC" opacity="0.8"/>
  <rect x="60" y="235" width="80" height="10" rx="2" fill="#FFFFFF" opacity="0.7"/>
  
  <rect x="30" y="275" width="20" height="10" rx="2" fill="#00E6CC" opacity="0.8"/>
  <rect x="60" y="275" width="80" height="10" rx="2" fill="#FFFFFF" opacity="0.7"/>
  
  <!-- Main Dashboard Area -->
  <!-- Header Section -->
  <rect x="220" y="80" width="200" height="20" rx="2" fill="#FFFFFF"/>
  <rect x="220" y="110" width="300" height="10" rx="2" fill="#FFFFFF" opacity="0.7"/>
  
  <!-- Stats Cards -->
  <rect x="220" y="140" width="170" height="100" rx="8" fill="#2D2D35"/>
  <rect x="240" y="160" width="80" height="15" rx="2" fill="#FFFFFF" opacity="0.8"/>
  <rect x="240" y="185" width="130" height="30" rx="2" fill="#00E6CC" opacity="0.9"/>
  
  <rect x="410" y="140" width="170" height="100" rx="8" fill="#2D2D35"/>
  <rect x="430" y="160" width="80" height="15" rx="2" fill="#FFFFFF" opacity="0.8"/>
  <rect x="430" y="185" width="100" height="30" rx="2" fill="#00E6CC" opacity="0.9"/>
  
  <rect x="600" y="140" width="170" height="100" rx="8" fill="#2D2D35"/>
  <rect x="620" y="160" width="80" height="15" rx="2" fill="#FFFFFF" opacity="0.8"/>
  <rect x="620" y="185" width="80" height="30" rx="2" fill="#00E6CC" opacity="0.9"/>
  
  <!-- Chart Area -->
  <rect x="220" y="260" width="360" height="220" rx="8" fill="#2D2D35"/>
  <rect x="240" y="280" width="100" height="15" rx="2" fill="#FFFFFF" opacity="1"/>
  
  <!-- Line Chart -->
  <polyline points="240,430 290,380 340,400 390,350 440,370 490,320 540,340" stroke="#00E6CC" stroke-width="4" fill="none"/>
  <circle cx="240" cy="430" r="5" fill="#00E6CC" stroke="#FFFFFF" stroke-width="1"/>
  <circle cx="290" cy="380" r="5" fill="#00E6CC" stroke="#FFFFFF" stroke-width="1"/>
  <circle cx="340" cy="400" r="5" fill="#00E6CC" stroke="#FFFFFF" stroke-width="1"/>
  <circle cx="390" cy="350" r="5" fill="#00E6CC" stroke="#FFFFFF" stroke-width="1"/>
  <circle cx="440" cy="370" r="5" fill="#00E6CC" stroke="#FFFFFF" stroke-width="1"/>
  <circle cx="490" cy="320" r="5" fill="#00E6CC" stroke="#FFFFFF" stroke-width="1"/>
  <circle cx="540" cy="340" r="5" fill="#00E6CC" stroke="#FFFFFF" stroke-width="1"/>
  
  <!-- Chart Area Gradient -->
  <path d="M240,430 L290,380 L340,400 L390,350 L440,370 L490,320 L540,340 L540,450 L240,450 Z" fill="url(#chartGradient)" opacity="0.3"/>
  
  <!-- Activity Feed -->
  <rect x="600" y="260" width="170" height="220" rx="8" fill="#2D2D35"/>
  <rect x="620" y="280" width="100" height="15" rx="2" fill="#FFFFFF"/>
  
  <!-- Activity Items -->
  <circle cx="630" cy="320" r="6" fill="#00E6CC"/>
  <rect x="645" y="315" width="100" height="10" rx="2" fill="#FFFFFF" opacity="0.7"/>
  
  <circle cx="630" cy="350" r="6" fill="#00E6CC"/>
  <rect x="645" y="345" width="100" height="10" rx="2" fill="#FFFFFF" opacity="0.7"/>
  
  <circle cx="630" cy="380" r="6" fill="#00E6CC"/>
  <rect x="645" y="375" width="100" height="10" rx="2" fill="#FFFFFF" opacity="0.7"/>
  
  <circle cx="630" cy="410" r="6" fill="#00E6CC"/>
  <rect x="645" y="405" width="100" height="10" rx="2" fill="#FFFFFF" opacity="0.7"/>
  
  <circle cx="630" cy="440" r="6" fill="#00E6CC"/>
  <rect x="645" y="435" width="100" height="10" rx="2" fill="#FFFFFF" opacity="0.7"/>
  
  <!-- Glowing Elements -->
  <circle cx="490" cy="320" r="8" fill="#00E6CC" opacity="0.5">
    <animate attributeName="opacity" values="0.5;0.9;0.5" dur="2s" repeatCount="indefinite" />
  </circle>
  
  <circle cx="630" cy="320" r="8" fill="#00E6CC" opacity="0.5">
    <animate attributeName="opacity" values="0.5;0.9;0.5" dur="3s" repeatCount="indefinite" />
  </circle>
  
  <!-- Gradient Definitions -->
  <defs>
    <linearGradient id="chartGradient" x1="0" y1="0" x2="0" y2="1">
      <stop offset="0%" stop-color="#00E6CC" stop-opacity="0.7"/>
      <stop offset="100%" stop-color="#00E6CC" stop-opacity="0.1"/>
    </linearGradient>
  </defs>
</svg>