<svg width="100" height="100" viewBox="0 0 100 100" fill="none" xmlns="http://www.w3.org/2000/svg">
  <!-- Background Circle -->
  <circle cx="50" cy="50" r="50" fill="#2D2D35"/>
  
  <!-- Avatar - Male Data Analyst -->
  <circle cx="50" cy="40" r="20" fill="#A0A0A0"/>
  <path d="M30 85 C30 65 70 65 70 85" fill="#A0A0A0"/>
  
  <!-- Hair -->
  <path d="M35 30 C35 25 65 25 65 30" fill="#37474F"/>
  <path d="M35 30 C35 35 40 40 50 35 C60 40 65 35 65 30" fill="#37474F"/>
  
  <!-- Face Details -->
  <circle cx="42" cy="38" r="2" fill="#263238"/>
  <circle cx="58" cy="38" r="2" fill="#263238"/>
  <path d="M42 48 C42 45 58 45 58 48" stroke="#263238" stroke-width="1" fill="none"/>
  
  <!-- Glasses -->
  <circle cx="42" cy="38" r="5" stroke="#00E6CC" stroke-width="1.5" fill="none"/>
  <circle cx="58" cy="38" r="5" stroke="#00E6CC" stroke-width="1.5" fill="none"/>
  <line x1="47" y1="38" x2="53" y2="38" stroke="#00E6CC" stroke-width="1.5"/>
  
  <!-- Data Analyst Attire -->
  <rect x="40" y="65" width="20" height="5" rx="2" fill="#00E6CC" opacity="0.8"/>
</svg>